<svg width="144" height="143" viewBox="0 0 144 143" fill="none" xmlns="http://www.w3.org/2000/svg">
<g style="mix-blend-mode:luminosity" clip-path="url(#clip0_578_5093)">
<g style="mix-blend-mode:luminosity">
<g style="mix-blend-mode:luminosity">
<path d="M98.2279 80.5186C101.075 80.1719 107.354 79.4256 108.472 80.8654C109.589 82.2787 107.221 88.2254 106.157 90.865C105.838 91.6652 106.529 91.985 107.248 91.3719C111.93 87.4252 113.155 79.1851 112.197 77.9853C111.239 76.8125 103.017 75.7987 98.0149 79.3188C97.2433 79.8786 97.3765 80.6254 98.2279 80.5186Z" fill="#FF9900"/>
<path d="M72.4191 94.9448C83.3548 94.9448 96.0728 91.5045 104.827 85.025C106.263 83.9584 105.013 82.332 103.549 82.9985C93.7314 87.1582 83.062 89.1852 73.3504 89.1852C58.956 89.1852 45.0405 85.2121 33.7596 78.6523C32.7744 78.0656 32.0298 79.0788 32.8542 79.8257C43.2847 89.265 57.0935 94.9448 72.4191 94.9448Z" fill="#FF9900"/>
<path d="M55.0449 64.4125C55.0449 65.3993 55.1511 66.199 55.3372 66.7857C55.5737 67.4456 55.8585 68.0872 56.1891 68.7054C56.3218 68.9189 56.3752 69.1324 56.3752 69.319C56.3752 69.5859 56.2156 69.8529 55.8694 70.1192L54.1934 71.2392C53.954 71.3988 53.7141 71.4792 53.5016 71.4792C53.2352 71.4792 52.9694 71.3455 52.7035 71.1055C52.3448 70.7194 52.0239 70.2997 51.7453 69.8523C51.4478 69.3399 51.1726 68.8149 50.9203 68.2788C48.8453 70.7324 46.2375 71.9591 43.0981 71.9591C40.863 71.9591 39.0808 71.319 37.7769 70.0394C36.473 68.7593 35.8076 67.0521 35.8076 64.9194C35.8076 62.6524 36.6057 60.8125 38.2288 59.4262C39.8519 58.0393 42.0072 57.3463 44.7482 57.3463C45.6525 57.3463 46.5837 57.4261 47.5684 57.5593C48.5525 57.6931 49.5635 57.9061 50.628 58.146V56.1994C50.628 54.1729 50.202 52.7596 49.377 51.9329C48.5261 51.1063 47.089 50.7067 45.0404 50.7067C44.1092 50.7067 43.1515 50.8129 42.1668 51.0529C41.1886 51.2866 40.2283 51.5897 39.2932 51.9599C38.9907 52.0956 38.6796 52.2114 38.362 52.3066C38.1759 52.3595 38.0428 52.3864 37.936 52.3864C37.5639 52.3864 37.3773 52.1201 37.3773 51.5598V50.2532C37.3773 49.8267 37.4313 49.5064 37.5639 49.3203C37.6966 49.1332 37.936 48.9466 38.3086 48.7595C39.2399 48.2796 40.3577 47.88 41.661 47.5597C42.9649 47.2135 44.3491 47.0528 45.8121 47.0528C48.9785 47.0528 51.2929 47.7733 52.7828 49.213C54.2463 50.6528 54.9915 52.8399 54.9915 55.7728V64.4125H55.0449ZM44.2424 68.4659C45.1202 68.4659 46.0251 68.3058 46.9828 67.986C47.9404 67.6657 48.7919 67.079 49.5102 66.2793C49.9362 65.7725 50.2554 65.2127 50.415 64.5726C50.5746 63.9326 50.6808 63.1593 50.6808 62.2529V61.1329C49.8741 60.9362 49.057 60.785 48.2332 60.6799C47.4038 60.5741 46.5685 60.5204 45.7323 60.5192C43.9496 60.5192 42.6457 60.8659 41.7678 61.5858C40.8899 62.3062 40.4639 63.3195 40.4639 64.6525C40.4639 65.9056 40.7832 66.8391 41.4486 67.4791C42.087 68.1456 43.0183 68.4659 44.2418 68.4659H44.2424ZM65.6075 71.3455C65.1286 71.3455 64.8094 71.2657 64.5964 71.0791C64.3839 70.9189 64.1974 70.5452 64.0377 70.0389L57.7853 49.4266C57.6257 48.8927 57.5459 48.5465 57.5459 48.36C57.5459 47.9334 57.7583 47.6935 58.1843 47.6935H60.7915C61.2973 47.6935 61.6435 47.7733 61.8296 47.9598C62.0426 48.12 62.2016 48.4937 62.3618 49L66.8321 66.6525L70.9826 49C71.1152 48.4662 71.2748 48.12 71.4878 47.9598C71.7008 47.7997 72.0729 47.6935 72.5523 47.6935H74.6807C75.1865 47.6935 75.5321 47.7733 75.7451 47.9598C75.9581 48.12 76.1441 48.4937 76.2504 49L80.4543 66.866L85.0577 49C85.2168 48.4662 85.4028 48.12 85.5894 47.9598C85.8024 47.7997 86.1481 47.6935 86.6274 47.6935H89.1015C89.5275 47.6935 89.7669 47.9065 89.7669 48.36C89.7669 48.4931 89.7405 48.6263 89.7135 48.7865C89.6719 49.0139 89.6096 49.2369 89.5275 49.453L83.1154 70.0664C82.9552 70.5997 82.7692 70.9459 82.5562 71.106C82.3438 71.2662 81.9976 71.373 81.5451 71.373H79.2572C78.7514 71.373 78.4052 71.2926 78.1927 71.106C77.9802 70.9195 77.7937 70.5727 77.6874 70.0394L73.5634 52.8405L69.4657 70.013C69.3325 70.5463 69.1729 70.893 68.9599 71.0796C68.7474 71.2662 68.3748 71.346 67.896 71.346H65.6075V71.3455ZM99.7978 72.0659C98.4141 72.0659 97.0304 71.9057 95.7001 71.586C94.3698 71.2657 93.3323 70.9189 92.6405 70.5188C92.2145 70.2789 91.9222 70.0119 91.8154 69.7725C91.7119 69.537 91.6576 69.2829 91.6558 69.0257V67.6657C91.6558 67.106 91.8688 66.8391 92.2679 66.8391C92.4275 66.8391 92.5871 66.866 92.7467 66.9189C92.9063 66.9728 93.1457 67.079 93.4121 67.1858C94.3519 67.5999 95.3331 67.9126 96.3391 68.1187C97.403 68.3322 98.441 68.439 99.505 68.439C101.181 68.439 102.485 68.1456 103.39 67.5589C104.294 66.9723 104.773 66.1192 104.773 65.0256C104.773 64.2793 104.534 63.6662 104.055 63.1593C103.576 62.6524 102.671 62.1995 101.367 61.7729L97.5098 60.5726C95.5675 59.9595 94.1304 59.053 93.2525 57.8527C92.3746 56.6793 91.9222 55.3727 91.9222 53.9864C91.9222 52.8664 92.1616 51.8796 92.6405 51.0265C93.1193 50.1734 93.7578 49.4266 94.5564 48.8399C95.3545 48.2268 96.2588 47.7733 97.3232 47.4535C98.3877 47.1332 99.505 47 100.676 47C101.261 47 101.873 47.027 102.458 47.1068C103.07 47.1866 103.629 47.2933 104.188 47.4001C104.72 47.5333 105.226 47.6665 105.705 47.8261C106.183 47.9868 106.556 48.1464 106.822 48.3066C107.194 48.5201 107.461 48.7331 107.62 48.9731C107.78 49.1866 107.86 49.4799 107.86 49.8531V51.1068C107.86 51.6671 107.647 51.9604 107.248 51.9604C107.035 51.9604 106.689 51.8537 106.237 51.6401C104.72 50.9472 103.017 50.6005 101.128 50.6005C99.6117 50.6005 98.4141 50.8404 97.5896 51.3468C96.7646 51.8537 96.3391 52.6269 96.3391 53.7205C96.3391 54.4668 96.6049 55.1063 97.1372 55.6132C97.6694 56.1201 98.6535 56.627 100.064 57.08L103.842 58.2803C105.758 58.8934 107.141 59.747 107.966 60.8401C108.791 61.9331 109.19 63.1863 109.19 64.5732C109.19 65.7196 108.951 66.7598 108.498 67.6663C108.02 68.5727 107.381 69.3729 106.556 70.013C105.731 70.6795 104.747 71.1594 103.603 71.5062C102.406 71.8793 101.154 72.0664 99.7978 72.0664V72.0659Z" fill="white"/>
</g>
</g>
</g>
<defs>
<clipPath id="clip0_578_5093">
<rect width="80" height="80" fill="white" transform="translate(32.5 31)"/>
</clipPath>
</defs>
</svg>
