<svg width="144" height="143" viewBox="0 0 144 143" fill="none" xmlns="http://www.w3.org/2000/svg">
<g clip-path="url(#clip0_578_4937)">
<path d="M69.9666 31H83.1832V91.5631C77.5415 92.721 71.7991 93.3183 66.0399 93.3465C49.9 93.3298 41.5 86.1198 41.5 72.2732C41.5 58.9399 50.41 50.2733 64.2199 50.2733C66.1568 50.2355 68.0898 50.4598 69.9666 50.9399V31ZM69.9666 61.4732C68.5297 60.9993 67.0226 60.7738 65.5099 60.8066C58.8433 60.8066 54.9666 64.8832 54.9666 72.0265C54.9666 78.9832 58.6566 82.8232 65.4266 82.8232C66.946 82.8228 68.4634 82.7114 69.9666 82.4898V61.4899V61.4732Z" fill="#44B78B"/>
<path d="M104.183 51.1968V81.53C104.183 91.9733 103.4 96.9933 101.107 101.323C98.7663 105.726 94.9391 109.155 90.3068 111L78.0469 105.223C82.5009 103.698 86.2312 100.576 88.5168 96.46C90.4035 92.7233 91.0002 88.3933 91.0002 77.0034V51.1968H104.183Z" fill="#44B78B"/>
<path d="M104.2 31.0669H90.9863V44.4935H104.2V31.0669Z" fill="#44B78B"/>
</g>
<defs>
<clipPath id="clip0_578_4937">
<rect width="80" height="80" fill="white" transform="translate(32.5 31)"/>
</clipPath>
</defs>
</svg>
