<svg width="144" height="143" viewBox="0 0 144 143" fill="none" xmlns="http://www.w3.org/2000/svg">
<g style="mix-blend-mode:luminosity">
<g clip-path="url(#clip0_578_5017)">
<path fill-rule="evenodd" clip-rule="evenodd" d="M76.1967 50.4974H67.9101V43H76.1967V50.4974ZM56.6639 59.5733H48.5745V52.0759H56.6639V59.5733ZM66.529 59.5733H58.2423V52.0759H66.529V59.5733ZM76.1967 59.5733H67.9101V52.0759H76.1967V59.5733ZM46.9961 68.6492H38.7095V61.1517H46.9961V68.6492ZM56.6639 68.6492H48.5745V61.1517H56.6639V68.6492ZM66.529 68.6492H58.2423V61.1517H66.529V68.6492ZM76.1967 68.6492H67.9101V61.1517H76.1967V68.6492ZM86.0618 68.6492H77.7751V61.1517H86.0618V68.6492Z" fill="#066DA5"/>
<path d="M112.5 65.295C112.5 65.295 108.949 61.9409 101.648 63.1247C100.859 57.403 94.7429 54.0488 94.7429 54.0488C94.7429 54.0488 89.0211 60.9544 93.1645 68.6491C91.9807 69.241 90.0077 70.0302 87.0481 70.0302H32.7903C31.8038 73.779 31.8038 98.6389 59.0313 98.6389C78.5642 98.6389 93.1645 89.5631 100.07 72.9898C110.33 73.779 112.5 65.295 112.5 65.295Z" fill="#066DA5"/>
</g>
</g>
<defs>
<clipPath id="clip0_578_5017">
<rect width="80" height="80" fill="white" transform="translate(32.5 31)"/>
</clipPath>
</defs>
</svg>
