<svg width="144" height="144" viewBox="0 0 144 144" fill="none" xmlns="http://www.w3.org/2000/svg">
<g clip-path="url(#clip0_166_383)">
<path d="M72 112C94.0914 112 112 94.0914 112 72C112 49.9086 94.0914 32 72 32C49.9086 32 32 49.9086 32 72C32 94.0914 49.9086 112 72 112Z" fill="#663399"/>
<path d="M49.7144 94.2857C43.7144 88.2857 40.5715 80.2857 40.5715 72.5714L71.7144 103.429C63.7144 103.143 55.7144 100.286 49.7144 94.2857ZM78.8572 102.571L41.4287 65.1428C44.5715 51.1428 57.143 40.5714 72.0001 40.5714C82.5715 40.5714 91.7144 45.7143 97.4287 53.4286L93.143 57.1428C88.2858 50.5714 80.5715 46.2857 72.0001 46.2857C60.8572 46.2857 51.4287 53.4286 47.7144 63.4286L80.5715 96.2857C88.8572 93.4286 95.143 86.2857 97.143 77.7143H83.4287V72H103.429C103.429 86.8571 92.8572 99.4286 78.8572 102.571Z" fill="white"/>
</g>
<defs>
<clipPath id="clip0_166_383">
<rect width="80" height="80" fill="white" transform="translate(32 32)"/>
</clipPath>
</defs>
</svg>
