<svg width="144" height="143" viewBox="0 0 144 143" fill="none" xmlns="http://www.w3.org/2000/svg">
<path d="M31.6592 32H111.659V112H31.6592V32Z" fill="#F7DF1E"/>
<path d="M52.6593 99.1261L58.7815 95.4211C59.9625 97.5152 61.037 99.287 63.6141 99.287C66.0844 99.287 67.6419 98.3206 67.6419 94.5619V69H75.1599V94.6682C75.1599 102.455 70.5956 105.999 63.9364 105.999C57.9223 105.999 54.4312 102.884 52.6592 99.1255" fill="black"/>
<path d="M79.6592 97.7503L85.7806 94.2061C87.392 96.8377 89.4864 98.7708 93.1915 98.7708C96.3065 98.7708 98.293 97.2133 98.293 95.0653C98.293 92.4876 96.2525 91.5746 92.8155 90.0715L90.9365 89.2654C85.5124 86.9567 81.9143 84.0569 81.9143 77.9349C81.9143 72.2963 86.2103 68 92.9232 68C97.7026 68 101.139 69.6649 103.609 74.0147L97.7559 77.7736C96.4671 75.4646 95.0712 74.5519 92.9233 74.5519C90.7215 74.5519 89.3252 75.9481 89.3252 77.7736C89.3252 80.0291 90.7215 80.9422 93.9432 82.3385L95.8226 83.144C102.213 85.8829 105.811 88.675 105.811 94.9578C105.811 101.725 100.495 105.43 93.3528 105.43C86.3717 105.43 81.8607 102.1 79.6593 97.7503" fill="black"/>
</svg>
