<svg width="144" height="143" viewBox="0 0 144 143" fill="none" xmlns="http://www.w3.org/2000/svg">
<g clip-path="url(#clip0_578_5114)">
<path d="M44.2726 101.991H40.4012C40.2643 95.4562 39.8872 89.3128 39.2708 83.5562H39.2364L33.3421 101.991H30.3946L24.5355 83.5562H24.5018C24.0672 89.0831 23.7934 95.228 23.6797 101.991H20.1509C20.3783 93.767 20.9498 86.0571 21.8633 78.8604H26.6616L32.2462 95.8564H32.2806L37.8995 78.8604H42.4906C43.4961 87.2899 44.0901 95.0006 44.2726 101.991ZM61.0622 84.9252C59.486 93.479 57.4062 99.6942 54.8253 103.574C52.8144 106.56 50.6113 108.055 48.2121 108.055C47.5725 108.055 46.7832 107.862 45.8481 107.479V105.416C46.3052 105.482 46.8416 105.52 47.458 105.52C48.5787 105.52 49.4794 105.211 50.1661 104.593C50.9875 103.841 51.3983 102.995 51.3983 102.059C51.3983 101.417 51.0781 100.105 50.4392 98.1179L46.1907 84.9244H49.9941L53.0433 94.7919C53.7286 97.0324 54.0144 98.5967 53.8999 99.4877C55.5674 95.0343 56.7322 90.1783 57.3958 84.9237H61.0622V84.9252Z" fill="#5D87A1"/>
<path d="M112.595 101.991H101.598V78.8602H105.298V99.1435H112.595V101.991ZM98.7196 102.55L94.4674 100.451C94.8445 100.141 95.205 99.8063 95.5297 99.418C97.3371 97.2949 98.2386 94.1551 98.2386 89.9965C98.2386 82.3441 95.2357 78.5161 89.2277 78.5161C86.2817 78.5161 83.9836 79.4871 82.34 81.43C80.5341 83.5546 79.6326 86.6831 79.6326 90.8194C79.6326 94.8853 80.4316 97.868 82.0303 99.7599C83.4928 101.474 85.6974 102.332 88.6457 102.332C89.7454 102.332 90.7546 102.197 91.674 101.926L97.21 105.148L98.7196 102.55ZM84.9449 97.3622C84.0082 95.8556 83.5399 93.4362 83.5399 90.1004C83.5399 84.2765 85.3092 81.3611 88.8514 81.3611C90.703 81.3611 92.06 82.0584 92.9278 83.4498C93.863 84.9587 94.3335 87.3564 94.3335 90.6458C94.3335 96.5176 92.5628 99.4539 89.0228 99.4539C87.1705 99.4547 85.8134 98.7597 84.9449 97.3622ZM78.0204 95.5795C78.0204 97.541 77.3008 99.1502 75.8629 100.411C74.4236 101.666 72.4935 102.295 70.0749 102.295C67.8126 102.295 65.6192 101.573 63.4961 100.135L64.4903 98.1485C66.3172 99.0634 67.9712 99.5183 69.4562 99.5183C70.8499 99.5183 71.9391 99.2093 72.7291 98.5966C73.5184 97.9817 73.9889 97.1191 73.9889 96.0284C73.9889 94.6541 73.0306 93.4796 71.2726 92.4958C69.6515 91.6056 66.4092 89.7443 66.4092 89.7443C64.6519 88.4636 63.7721 87.0886 63.7721 84.8233C63.7721 82.9486 64.4282 81.4352 65.7411 80.2839C67.0556 79.1281 68.7515 78.552 70.8305 78.552C72.9775 78.552 74.9293 79.1273 76.6873 80.2659L75.7956 82.2529C74.2919 81.614 72.8077 81.2946 71.3437 81.2946C70.1579 81.2946 69.2422 81.5796 68.6056 82.1519C67.9637 82.7219 67.568 83.4513 67.568 84.3461C67.568 85.7136 68.5465 86.9031 70.3524 87.9063C71.9953 88.798 75.3183 90.6914 75.3183 90.6914C77.1205 91.9699 78.0204 93.3322 78.0204 95.5795Z" fill="#F8981D"/>
<path d="M117.239 71.1128C115.002 71.0559 113.271 71.2811 111.817 71.8961C111.397 72.0636 110.73 72.0636 110.672 72.594C110.898 72.8185 110.925 73.1805 111.121 73.4903C111.456 74.0491 112.041 74.8009 112.574 75.1929C113.16 75.6418 113.748 76.0862 114.364 76.4774C115.451 77.15 116.683 77.5412 117.743 78.2115C118.36 78.6013 118.973 79.1055 119.591 79.5252C119.895 79.7489 120.09 80.1117 120.484 80.2516V80.1663C120.286 79.9149 120.23 79.5514 120.036 79.2716L119.197 78.4621C118.386 77.3729 117.378 76.4221 116.291 75.641C115.397 75.0246 113.44 74.1867 113.077 73.1559L113.02 73.099C113.635 73.0414 114.364 72.8185 114.949 72.6472C115.899 72.3965 116.766 72.4534 117.742 72.2028C118.191 72.0906 118.636 71.9499 119.086 71.8115V71.5594C118.581 71.0559 118.22 70.3871 117.688 69.9114C116.265 68.6822 114.697 67.48 113.077 66.4738C112.209 65.9135 111.093 65.5529 110.169 65.0764C109.836 64.9081 109.275 64.825 109.079 64.5452C108.578 63.9303 108.296 63.1209 107.932 62.393C107.124 60.8571 106.339 59.1529 105.642 57.5288C105.138 56.4396 104.831 55.3518 104.216 54.3441C101.336 49.5937 98.2084 46.7165 93.4011 43.8924C92.368 43.3044 91.1389 43.0538 89.8259 42.7456L87.729 42.6349C87.2817 42.4389 86.8335 41.907 86.443 41.6556C84.8481 40.6502 80.7418 38.471 79.5687 41.3482C78.8132 43.1668 80.6864 44.9547 81.3298 45.8772C81.8048 46.5175 82.4205 47.2462 82.7527 47.9733C82.9494 48.4484 83.0048 48.9526 83.2015 49.4546C83.6489 50.6844 84.0671 52.0527 84.6551 53.2003C84.9618 53.7853 85.2962 54.4003 85.6882 54.9299C85.9126 55.2396 86.3031 55.3765 86.3884 55.8815C85.9987 56.4381 85.968 57.2782 85.7443 57.9769C84.7389 61.1346 85.1316 65.0465 86.5567 67.3671C87.0026 68.0658 88.0664 69.6039 89.4893 69.0144C90.7491 68.5117 90.4701 66.919 90.8321 65.5223C90.9152 65.1849 90.8606 64.9634 91.0281 64.742V64.7966C91.4179 65.5784 91.8114 66.3317 92.1727 67.1157C93.0398 68.484 94.5494 69.9099 95.807 70.8577C96.4765 71.3634 97.0069 72.2282 97.8456 72.5372V72.4534H97.7902C97.6204 72.2028 97.372 72.0906 97.1491 71.8961C96.6449 71.3926 96.0868 70.7777 95.6955 70.2196C94.524 68.6538 93.4871 66.9205 92.567 65.1317C92.1166 64.264 91.7284 63.3154 91.3655 62.4491C91.1965 62.1147 91.1965 61.6104 90.9159 61.4421C90.4955 62.0563 89.8828 62.5882 89.5761 63.3408C89.0442 64.5445 88.9888 66.025 88.7913 67.5646L88.6813 67.6184C87.7911 67.3947 87.4814 66.4738 87.1433 65.6921C86.3061 63.7066 86.1655 60.5197 86.8919 58.229C87.0864 57.6433 87.928 55.7985 87.5921 55.2404C87.4238 54.7055 86.8642 54.401 86.5575 53.9798C86.1969 53.4502 85.8019 52.7799 85.5506 52.1919C84.8803 50.6276 84.5429 48.8942 83.8209 47.3307C83.4835 46.6021 82.8978 45.848 82.4235 45.1769C81.8908 44.4228 81.3051 43.8917 80.8839 42.9977C80.7448 42.6902 80.5495 42.1875 80.7732 41.8531C80.8278 41.6287 80.9415 41.5449 81.1644 41.4888C81.5265 41.1828 82.5611 41.5718 82.924 41.7402C83.9601 42.1591 84.8264 42.5504 85.6912 43.1369C86.0824 43.4174 86.5021 43.9486 87.0041 44.0884H87.5921C88.4846 44.283 89.4908 44.1423 90.3309 44.3952C91.8114 44.871 93.1527 45.5689 94.3557 46.3223C98.0161 48.6436 101.035 51.942 103.073 55.8815C103.407 56.5234 103.549 57.1114 103.854 57.7809C104.443 59.1514 105.171 60.5489 105.755 61.8902C106.342 63.2031 106.902 64.5437 107.741 65.6345C108.159 66.221 109.839 66.5284 110.592 66.8359C111.15 67.0865 112.018 67.3095 112.52 67.6169C113.471 68.2027 114.418 68.8752 115.312 69.5194C115.757 69.8545 117.156 70.5532 117.239 71.1128ZM88.7322 46.8265C88.3464 46.8225 87.9617 46.8698 87.5884 46.9671V47.0232H87.6422C87.8674 47.4699 88.2587 47.7796 88.5377 48.1693C88.7629 48.6174 88.9581 49.0618 89.1788 49.5092L89.2327 49.4538C89.6269 49.1748 89.8229 48.7274 89.8229 48.0564C89.6531 47.8589 89.6269 47.6659 89.4856 47.4699C89.321 47.1901 88.9581 47.0509 88.7322 46.8265Z" fill="#5D87A1"/>
<path d="M119.901 101.987H120.48V99.1531H119.612L118.903 101.087L118.134 99.1531H117.297V101.987H117.844V99.8309H117.875L118.681 101.987H119.098L119.901 99.8309V101.987ZM115.237 101.987H115.85V99.6334H116.652V99.1523H114.401V99.6334H115.235L115.237 101.987Z" fill="#F8981D"/>
</g>
<defs>
<clipPath id="clip0_578_5114">
<rect width="143" height="143" fill="white" transform="translate(0.5)"/>
</clipPath>
</defs>
</svg>
