<svg width="144" height="143" viewBox="0 0 144 143" fill="none" xmlns="http://www.w3.org/2000/svg">
<path d="M51.0964 59.5877H66.1851V60.787H52.4795V69.8131H65.3678V71.0124H52.4795V80.9221H66.3423V82.1214H51.0964V59.5877ZM67.5368 59.5877H69.14L76.2442 69.4975L83.5057 59.5877L93.3825 47L77.1559 70.539L85.5175 82.1214H83.8515L76.2442 71.5804L68.6056 82.1214H66.971L75.3955 70.539L67.5368 59.5877ZM86.1148 60.787V59.5877H103.31V60.787H95.3881V82.1214H94.0049V60.787H86.1148ZM32.2197 59.5877H33.9486L57.7894 95.2631L47.9372 82.1214L33.6657 61.2919L33.6029 82.1214H32.2197V59.5877ZM103.17 80.5602C102.888 80.5602 102.676 80.3413 102.676 80.0583C102.676 79.7754 102.888 79.5564 103.17 79.5564C103.456 79.5564 103.665 79.7754 103.665 80.0583C103.665 80.3413 103.456 80.5602 103.17 80.5602ZM104.529 79.2398H105.27C105.28 79.6406 105.572 79.9101 106.003 79.9101C106.484 79.9101 106.756 79.6204 106.756 79.0781V75.6422H107.51V79.0815C107.51 80.0583 106.945 80.6209 106.01 80.6209C105.132 80.6209 104.529 80.0752 104.529 79.2398ZM108.496 79.196H109.243C109.306 79.6575 109.757 79.9505 110.406 79.9505C111.012 79.9505 111.456 79.6373 111.456 79.2061C111.456 78.8356 111.173 78.6132 110.531 78.4617L109.905 78.3101C109.027 78.1046 108.627 77.6802 108.627 76.9661C108.627 76.1004 109.333 75.5243 110.393 75.5243C111.379 75.5243 112.099 76.1004 112.142 76.9189H111.409C111.338 76.4709 110.948 76.1913 110.383 76.1913C109.787 76.1913 109.391 76.4776 109.391 76.9155C109.391 77.2625 109.646 77.4612 110.279 77.6094L110.814 77.7408C111.809 77.9732 112.22 78.3775 112.22 79.1084C112.22 80.0381 111.5 80.6209 110.349 80.6209C109.273 80.6209 108.549 80.0651 108.496 79.196Z" fill="white"/>
</svg>
