<svg width="144" height="143" viewBox="0 0 144 143" fill="none" xmlns="http://www.w3.org/2000/svg">
<g clip-path="url(#clip0_578_5026)">
<path d="M33.1418 94.1834C33.5544 94.9169 34.1504 95.467 34.884 95.8797L70.1848 116.235C71.6519 117.106 73.4398 117.106 74.861 116.235L110.162 95.8797C111.629 95.0544 112.5 93.4957 112.5 91.7994V51.0888C112.5 49.3925 111.629 47.8338 110.162 47.0086L74.861 26.6533C73.394 25.7822 71.606 25.7822 70.1848 26.6533L34.884 47.0086C33.3711 47.8338 32.5 49.3925 32.5 51.0888V91.8453C32.5 92.6705 32.6834 93.4499 33.1418 94.1834Z" fill="#009639"/>
<path d="M61.1989 86.9856C61.1989 89.5071 59.1818 91.5243 56.6603 91.5243C54.1388 91.5243 52.1216 89.5071 52.1216 86.9856V55.8567C52.1216 53.4269 54.2763 51.4555 57.2563 51.4555C59.411 51.4555 61.9325 52.3266 63.4454 54.2062L64.8207 55.8567L83.8007 78.5501V55.9483C83.8007 53.4269 85.8179 51.4097 88.3393 51.4097C90.8608 51.4097 92.878 53.4269 92.878 55.9483V87.0773C92.878 89.5071 90.7233 91.4784 87.7434 91.4784C85.5886 91.4784 83.0671 90.6074 81.5542 88.7277L61.1989 64.4297V86.9856Z" fill="white"/>
</g>
<defs>
<clipPath id="clip0_578_5026">
<rect width="80" height="80" fill="white" transform="translate(32.5 31)"/>
</clipPath>
</defs>
</svg>
