<svg width="142" height="143" viewBox="0 0 142 143" fill="none" xmlns="http://www.w3.org/2000/svg">
<g clip-path="url(#clip0_578_4940)">
<path d="M71.0001 121.814C69.6246 121.814 68.3409 121.448 67.1488 120.806L54.9528 113.562C53.1188 112.553 54.0358 112.186 54.586 112.003C57.0619 111.177 57.5204 110.994 60.0879 109.527C60.363 109.343 60.7298 109.435 61.0049 109.618L70.3582 115.212C70.725 115.396 71.1835 115.396 71.4586 115.212L108.047 94.0296C108.413 93.8462 108.597 93.4794 108.597 93.0209V50.7477C108.597 50.2892 108.413 49.9224 108.047 49.739L71.4586 28.6482C71.0918 28.4648 70.6333 28.4648 70.3582 28.6482L33.7703 49.739C33.4035 49.9224 33.2201 50.3809 33.2201 50.7477V93.0209C33.2201 93.3877 33.4035 93.8462 33.7703 94.0296L43.7655 99.8067C49.1757 102.558 52.5686 99.3482 52.5686 96.1387V54.4156C52.5686 53.8654 53.0271 53.3152 53.669 53.3152H58.3457C58.8959 53.3152 59.446 53.7737 59.446 54.4156V96.1387C59.446 103.383 55.503 107.601 48.6256 107.601C46.5165 107.601 44.8659 107.601 40.1892 105.309L30.5608 99.8067C28.1767 98.4312 26.7095 95.8636 26.7095 93.1126V50.8394C26.7095 48.0884 28.1767 45.5208 30.5608 44.1453L67.1488 22.9628C69.4412 21.6791 72.559 21.6791 74.8515 22.9628L111.439 44.1453C113.824 45.5208 115.291 48.0884 115.291 50.8394V93.1126C115.291 95.8636 113.824 98.4312 111.439 99.8067L74.8515 120.989C73.6594 121.539 72.2839 121.814 71.0001 121.814ZM82.2791 92.7458C66.2318 92.7458 62.9306 85.4099 62.9306 79.1744C62.9306 78.6242 63.3891 78.074 64.031 78.074H68.7994C69.3495 78.074 69.808 78.4408 69.808 78.991C70.5416 83.851 72.6507 86.2352 82.3708 86.2352C90.0735 86.2352 93.3747 84.4929 93.3747 80.3665C93.3747 77.9823 92.4577 76.24 80.4451 75.0479C70.4499 74.0392 64.2144 71.8385 64.2144 63.8606C64.2144 56.433 70.4499 52.0315 80.9036 52.0315C92.6411 52.0315 98.4182 56.0662 99.1517 64.8693C99.1517 65.1444 99.06 65.4195 98.8766 65.6946C98.6933 65.878 98.4182 66.0614 98.1431 66.0614H93.3747C92.9162 66.0614 92.4577 65.6946 92.366 65.2361C91.2656 60.1927 88.423 58.5421 80.9036 58.5421C72.4673 58.5421 71.4586 61.4765 71.4586 63.6772C71.4586 66.3365 72.6507 67.1618 84.0214 68.629C95.3004 70.0962 100.619 72.2052 100.619 80.0914C100.527 88.1609 93.9249 92.7458 82.2791 92.7458Z" fill="#539E43"/>
</g>
<defs>
<clipPath id="clip0_578_4940">
<rect width="88.5813" height="143" fill="white" transform="translate(26.7095)"/>
</clipPath>
</defs>
</svg>
