<svg width="144" height="143" viewBox="0 0 144 143" fill="none" xmlns="http://www.w3.org/2000/svg">
<g style="mix-blend-mode:luminosity">
<g clip-path="url(#clip0_578_5123)">
<path d="M110.892 78.9295C110.65 78.2273 110.215 77.6077 109.637 77.1421C109.059 76.6764 108.361 76.3838 107.623 76.2981C106.752 76.1933 105.869 76.2426 105.014 76.4438C103.693 76.7356 102.349 76.9125 100.997 76.9724C104.612 70.8734 107.373 64.3073 109.203 57.4576C111.926 46.9174 110.472 42.1173 108.772 39.943C106.514 37.0868 103.625 34.7931 100.331 33.2424C97.0369 31.6916 93.4282 30.926 89.7883 31.0056C86.4493 30.9744 83.1242 31.4404 79.9224 32.3885C78.0154 32.0616 76.0855 31.8858 74.1508 31.8628C70.6343 31.7293 67.151 32.5877 64.0992 34.34C61.7847 33.5575 59.4114 32.9613 57.0019 32.5571C54.193 31.8833 51.2789 31.7696 48.4261 32.2226C45.5733 32.6756 42.8378 33.6864 40.3758 35.1972C35.4214 38.6944 33.1242 44.7745 33.55 53.269C34.3122 59.606 35.657 65.8593 37.5672 71.9494C38.6673 75.7535 40.1154 79.4482 41.893 82.9868C43.2058 86.2148 45.7015 88.8198 48.8703 90.2698C50.0318 90.6525 51.2746 90.7176 52.4697 90.4584C53.6649 90.1992 54.769 89.625 55.6676 88.7955C56.0754 89.2784 56.5577 89.6931 57.0962 90.0241C57.9308 90.5421 58.8407 90.9276 59.7934 91.167C62.9118 92.0355 66.2314 91.8344 69.2222 90.5955C69.2393 91.0841 69.2536 91.5527 69.2622 91.9584C69.2793 92.6127 69.2993 93.2556 69.3222 93.8584C69.2882 97.0455 69.7126 100.221 70.5822 103.287C70.6279 103.41 70.6879 103.593 70.7508 103.79C71.2526 105.667 72.2275 107.383 73.5823 108.776C75.2065 110.267 77.3498 111.064 79.5538 110.996C80.4926 110.99 81.4283 110.886 82.3453 110.685C84.0837 110.466 85.7608 109.902 87.2777 109.025C88.7945 108.148 90.1203 106.976 91.1769 105.579C93.4941 102.279 94.6227 97.3099 94.8256 89.4783C94.8513 89.2555 94.877 89.044 94.8999 88.844L94.9484 88.4297L95.4942 88.4783H95.6342C98.7239 88.6092 101.806 88.0752 104.672 86.9126C106.474 86.0754 112.255 83.0239 110.892 78.9124" fill="black"/>
<path d="M105.698 79.7299C96.6606 81.5928 96.0406 78.5356 96.0406 78.5356C105.581 64.3782 109.569 46.4063 106.127 42.0091C96.7377 30.0088 80.4831 35.6861 80.2117 35.8318L80.1231 35.849C78.1377 35.4505 76.1192 35.2401 74.0944 35.2204C70.6797 35.0491 67.31 36.0579 64.5513 38.0776C64.5513 38.0776 35.5564 26.1316 36.905 53.1008C37.1907 58.838 45.128 96.5132 54.594 85.1329C58.054 80.9728 61.397 77.4527 61.397 77.4527C63.0806 78.5891 65.1063 79.1061 67.1285 78.9156L67.2914 78.7785C67.2436 79.3191 67.2657 79.8636 67.3571 80.3985C64.917 83.1243 65.6428 83.6014 60.7598 84.6043C55.8283 85.6215 58.7255 87.4301 60.6169 87.9044C62.6266 88.5545 64.7902 88.5531 66.799 87.9004C68.8079 87.2478 70.5591 85.9772 71.8029 84.27L71.66 84.8415C72.6143 85.6072 73.2858 89.8187 73.1744 93.6388C72.8627 96.4799 73.0562 99.3538 73.7458 102.128C74.5001 104.176 75.2487 108.782 81.6574 107.411C83.9363 107.185 86.0559 106.14 87.6221 104.47C89.1882 102.799 90.0943 100.616 90.1719 98.3275C90.4576 94.8017 91.0662 95.3217 91.1033 92.1702L91.6005 90.6787C92.1719 85.8986 91.6919 84.3557 94.9891 85.0729L95.792 85.1443C98.343 85.2515 100.888 84.8232 103.264 83.8872C107.281 82.0243 109.661 78.9099 105.701 79.7299" fill="#336791"/>
<path d="M66.2481 55.6669C65.5927 55.529 64.9095 55.6304 64.3223 55.9526C64.2458 56.0077 64.1811 56.0775 64.1321 56.158C64.083 56.2385 64.0505 56.328 64.0366 56.4212C64.0367 56.7507 64.1553 57.0692 64.3709 57.3184C64.7543 57.8449 65.3268 58.2023 65.9681 58.3155C66.0533 58.3273 66.1392 58.333 66.2252 58.3327C66.6497 58.3382 67.0657 58.2132 67.4167 57.9745C67.7678 57.7359 68.0371 57.3951 68.1881 56.9984C68.2881 56.2898 67.2567 55.8155 66.2567 55.6755M93.2344 55.6983C93.1573 55.1412 92.1658 54.984 91.2344 55.1269C90.3029 55.2698 89.3857 55.6812 89.4629 56.2383C89.6082 56.5879 89.8542 56.8862 90.1697 57.0954C90.4852 57.3045 90.8558 57.415 91.2344 57.4127C91.3137 57.4125 91.393 57.4068 91.4715 57.3955C91.967 57.3085 92.4199 57.0604 92.7601 56.6898C93.0445 56.44 93.2182 56.0875 93.243 55.7098" fill="white"/>
<path d="M108.703 79.5186C108.358 78.4757 107.249 78.1414 105.406 78.5215C99.9347 79.6643 97.9775 78.8672 97.3318 78.3957C101.665 71.7445 104.917 64.4493 106.969 56.781C107.8 53.7477 108.279 50.6291 108.398 47.4865C108.618 45.2883 108.107 43.0788 106.943 41.2006C104.884 38.609 102.251 36.531 99.252 35.1303C96.2528 33.7296 92.9693 33.0445 89.6602 33.129C86.2612 33.0759 82.8783 33.6084 79.66 34.7034C77.8193 34.2492 75.9328 34.0066 74.037 33.9805C70.6264 33.8306 67.2552 34.7594 64.4025 36.6348C61.8632 35.7064 59.2421 35.0196 56.5738 34.5834C51.4732 33.349 46.0915 34.1755 41.5963 36.8834C37.3105 39.9235 35.3105 45.3579 35.7076 53.0352C36.4581 59.1882 37.7713 65.2595 39.6306 71.1727C42.6878 81.1872 46.0107 86.8588 49.5079 88.0302C49.96 88.1825 50.4338 88.2607 50.9108 88.2617C51.7986 88.2067 52.6622 87.9501 53.436 87.5115C54.2098 87.0729 54.8735 86.4637 55.3766 85.7302C57.3614 83.3492 59.4138 81.0272 61.5339 78.7643C62.8968 79.5019 64.4135 79.91 65.9626 79.9558V80.0758C65.6959 80.392 65.4359 80.7139 65.1825 81.0415C64.1111 82.3987 63.8911 82.6815 60.4453 83.393C59.4653 83.5958 56.8624 84.133 56.8252 85.9645C56.7852 87.9645 59.9024 88.796 60.2539 88.8845C61.42 89.1844 62.6185 89.3399 63.8225 89.3474C66.4558 89.396 69.0092 88.4421 70.9655 86.6788C70.6734 92.1163 71.0389 97.5692 72.0541 102.919C72.5232 104.632 73.5386 106.145 74.9459 107.228C76.3533 108.311 78.0757 108.905 79.8514 108.919C80.7324 108.917 81.6106 108.821 82.4715 108.634C84.822 108.431 87.0226 107.394 88.6761 105.711C90.3296 104.028 91.3272 101.81 91.4888 99.4562C91.9946 96.5247 92.8631 89.5274 93.2717 85.773C94.3043 86.0568 95.3727 86.1887 96.4432 86.1645C98.9089 86.1823 101.354 85.7163 103.641 84.793C105.675 83.8473 109.355 81.5329 108.678 79.5186H108.703ZM95.3032 54.1495C95.2666 55.2102 95.1558 56.2671 94.9718 57.3124C94.7593 58.5407 94.6257 59.7814 94.5718 61.0268C94.5621 62.432 94.6576 63.8359 94.8575 65.2269C95.4747 68.0738 95.2473 71.039 94.2032 73.7585C93.9814 73.3652 93.7839 72.9587 93.6117 72.5413C93.446 72.1385 93.0832 71.4899 92.586 70.5956C90.6431 67.1098 86.0887 58.9439 88.4202 55.6124C89.1145 54.6209 90.8774 53.6123 95.3003 54.1495H95.3032ZM89.9402 35.3805C92.8648 35.3207 95.7635 35.9404 98.408 37.1908C101.053 38.4412 103.371 40.2881 105.181 42.5864C107.966 46.1436 104.895 62.3354 96.0232 76.3014L95.7546 75.9614L95.6432 75.8214C97.4057 72.4909 97.9186 68.6397 97.089 64.964C96.8979 63.6853 96.8024 62.394 96.8032 61.1011C96.855 59.9457 96.98 58.7948 97.1775 57.6553C97.4346 56.2484 97.5523 54.8195 97.529 53.3895C97.5755 53.1931 97.5881 52.9901 97.5661 52.7895C96.6194 48.9635 94.7429 45.4303 92.1031 42.5035C89.7312 39.7085 86.7645 37.4788 83.4201 35.9777C85.5619 35.5311 87.747 35.326 89.9345 35.3662L89.9402 35.3805ZM53.668 84.3044C51.8765 86.4588 50.6365 86.0473 50.2394 85.9102C47.5879 85.0245 44.5078 79.4186 41.7963 70.527C39.9959 64.7876 38.7146 58.8981 37.9677 52.9295C37.6248 46.0722 39.2877 41.2892 42.9106 38.7177C48.805 34.5376 58.4995 37.0406 62.3939 38.3092C62.3368 38.3634 62.2796 38.4149 62.2253 38.472C55.8338 44.9264 55.9852 55.9553 56.0023 56.6296C56.0023 56.8896 56.0223 57.2581 56.0538 57.7724C56.2881 60.8448 56.2105 63.933 55.8223 66.9898C55.5567 68.74 55.6932 70.5278 56.2214 72.2174C56.7496 73.907 57.6557 75.4541 58.871 76.7414C59.1243 77.0043 59.3891 77.2538 59.6653 77.49C58.571 78.6615 56.1909 81.2558 53.6651 84.3044H53.668ZM60.4967 75.19C59.5114 74.1482 58.7766 72.8954 58.3483 71.5269C57.9201 70.1584 57.8096 68.7103 58.0252 67.2926C58.4348 64.0893 58.5181 60.8526 58.2738 57.6324C58.2567 57.361 58.2424 57.1238 58.2338 56.9381C60.6272 55.1343 63.5975 54.2675 66.5854 54.5009C67.2729 54.6567 67.8948 55.0227 68.3648 55.548C68.8348 56.0733 69.1297 56.7319 69.2083 57.4324C71.0541 65.9726 69.4512 69.5298 68.1655 72.3899C67.8997 72.9785 67.6483 73.5328 67.4369 74.1042L67.2712 74.5499C66.8605 75.5852 66.5095 76.6432 66.2197 77.7186C65.1455 77.7033 64.0856 77.4709 63.1035 77.0354C62.1215 76.5998 61.2377 75.9702 60.5053 75.1842L60.4967 75.19ZM60.8196 86.7045C60.2894 86.574 59.7845 86.3568 59.3253 86.0616C59.836 85.8435 60.3699 85.6843 60.9167 85.5873C64.9683 84.753 65.594 84.1587 66.9626 82.4301C67.2769 82.033 67.6312 81.573 68.1226 81.0329C68.854 80.2129 69.1912 80.3529 69.7969 80.6044C70.0842 80.7604 70.3361 80.9742 70.5368 81.2324C70.7374 81.4905 70.8824 81.7874 70.9627 82.1044C71.0425 82.3345 71.0711 82.5793 71.0464 82.8216C71.0217 83.064 70.9444 83.298 70.8198 83.5073C69.7122 85.0367 68.1448 86.1722 66.3462 86.7478C64.5477 87.3235 62.6123 87.3093 60.8224 86.7073L60.8196 86.7045ZM82.0315 106.436C81.2296 106.715 80.378 106.822 79.5322 106.749C78.6863 106.676 77.8654 106.426 77.1228 106.015C76.3802 105.603 75.7328 105.04 75.2227 104.361C74.7127 103.683 74.3515 102.904 74.1627 102.076C73.1566 95.601 72.8691 89.0343 73.3056 82.4958C73.3085 82.3759 73.2921 82.2563 73.257 82.1415C73.227 81.9195 73.1812 81.6999 73.1199 81.4844C72.9506 80.8417 72.6423 80.244 72.2167 79.7335C71.7911 79.223 71.2587 78.8122 70.6569 78.53C69.9555 78.1822 69.1571 78.0815 68.3912 78.2443C68.6619 77.2534 68.9881 76.2785 69.3683 75.3242L69.5341 74.8757C69.7226 74.3699 69.9569 73.8471 70.2055 73.2928C71.5513 70.3013 73.397 66.2012 71.3941 56.9438C71.2673 56.1564 70.9806 55.4032 70.5516 54.7309C70.1226 54.0585 69.5605 53.4811 68.8998 53.0343C68.2391 52.5875 67.4939 52.2807 66.7101 52.133C65.9263 51.9852 65.1205 51.9996 64.3425 52.1752C62.4606 52.4193 60.6359 52.9908 58.951 53.8638C58.7281 53.9781 58.5224 54.0866 58.3338 54.1924C58.5499 49.0007 60.4766 44.0262 63.8139 40.0435C65.1544 38.7317 66.7542 37.7145 68.5107 37.0571C70.2673 36.3998 72.1418 36.1168 74.0142 36.2263C77.1772 36.2537 80.2957 36.9749 83.1497 38.3389C86.0037 39.703 88.5236 41.6767 90.5317 44.1207C92.4914 46.4091 94.0226 49.0321 95.0518 51.8637C90.8717 51.438 88.0288 52.2637 86.5887 54.3238C83.4458 58.8039 88.303 67.5012 90.6345 71.6813C91.0631 72.447 91.4317 73.1099 91.546 73.3956C92.1617 74.833 92.9911 76.1691 94.006 77.3586C94.226 77.6443 94.4403 77.8986 94.6003 78.1329C93.3346 78.4986 91.0602 79.3415 91.2688 83.5616C91.1031 85.6759 89.9145 95.5761 89.3088 99.0762C88.5116 103.696 86.8116 105.419 82.0286 106.445L82.0315 106.436ZM102.723 82.7558C100.964 83.4537 99.0975 83.8404 97.2061 83.8987C95.9477 84.0841 94.6625 83.919 93.4917 83.4216C93.3632 80.7958 94.3489 80.5215 95.3775 80.2301C95.5403 80.1843 95.6975 80.1386 95.8518 80.0872C95.9526 80.1686 96.0575 80.2449 96.1661 80.3158C97.9918 81.5215 101.252 81.6501 105.852 80.7015H105.903C104.953 81.547 103.877 82.2409 102.715 82.7587L102.723 82.7558Z" fill="white"/>
</g>
</g>
<defs>
<clipPath id="clip0_578_5123">
<rect width="80" height="80" fill="white" transform="translate(32.5 31)"/>
</clipPath>
</defs>
</svg>
