<svg width="144" height="142" viewBox="0 0 144 142" fill="none" xmlns="http://www.w3.org/2000/svg">
<path d="M71.6016 31C51.1863 31 52.4612 39.8533 52.4612 39.8533L52.484 49.0252H71.9658V51.7791H44.7459C44.7459 51.7791 31.6821 50.2975 31.6821 70.8967C31.6821 91.4959 43.0844 90.7654 43.0844 90.7654H49.8894V81.2066C49.8894 81.2066 49.5226 69.8043 61.1097 69.8043H80.4322C80.4322 69.8043 91.2883 69.9798 91.2883 59.3123V41.674C91.2883 41.674 92.9365 31 71.6016 31ZM60.8593 37.1677C62.7976 37.1677 64.3642 38.7343 64.3642 40.6726C64.3642 42.6109 62.7976 44.1775 60.8593 44.1775C58.921 44.1775 57.3544 42.6109 57.3544 40.6726C57.3544 38.7343 58.921 37.1677 60.8593 37.1677Z" fill="url(#paint0_linear_578_4930)"/>
<path d="M72.3983 110.769C92.8136 110.769 91.5387 101.915 91.5387 101.915L91.5159 92.7434H72.0341V89.9896H99.254C99.254 89.9896 112.318 91.4711 112.318 70.8719C112.318 50.2727 100.915 51.0032 100.915 51.0032H94.1105V60.562C94.1105 60.562 94.4773 71.9644 82.8902 71.9644H63.5677C63.5677 71.9644 52.7117 71.7889 52.7117 82.4563V100.095C52.7117 100.095 51.0634 110.769 72.3983 110.769ZM83.1406 104.601C81.2023 104.601 79.6357 103.034 79.6357 101.096C79.6357 99.1577 81.2023 97.5911 83.1406 97.5911C85.0789 97.5911 86.6455 99.1577 86.6455 101.096C86.6455 103.034 85.0789 104.601 83.1406 104.601Z" fill="url(#paint1_linear_578_4930)"/>
<defs>
<linearGradient id="paint0_linear_578_4930" x1="39.4105" y1="38.1958" x2="79.2632" y2="77.6508" gradientUnits="userSpaceOnUse">
<stop stop-color="#387EB8"/>
<stop offset="1" stop-color="#366994"/>
</linearGradient>
<linearGradient id="paint1_linear_578_4930" x1="64.089" y1="63.2999" x2="106.886" y2="103.758" gradientUnits="userSpaceOnUse">
<stop stop-color="#FFE052"/>
<stop offset="1" stop-color="#FFC331"/>
</linearGradient>
</defs>
</svg>
