<svg width="144" height="143" viewBox="0 0 144 143" fill="none" xmlns="http://www.w3.org/2000/svg">
<g clip-path="url(#clip0_578_4967)">
<path d="M98.2761 58.0699C97.4462 57.7842 96.5862 57.514 95.7008 57.2584C95.8463 56.6644 95.9799 56.0782 96.0986 55.5019C98.0481 46.039 96.7735 38.4157 92.421 35.9058C88.2476 33.4991 81.4223 36.0084 74.529 42.0074C73.8662 42.5843 73.2015 43.195 72.537 43.8351C72.0943 43.4116 71.6523 43.0024 71.2114 42.6109C63.9871 36.1964 56.7458 33.4933 52.3977 36.0104C48.2282 38.4241 46.9935 45.5908 48.7483 54.5588C48.9177 55.425 49.1158 56.3096 49.3398 57.2089C48.315 57.4999 47.3256 57.81 46.3789 58.1399C37.9092 61.0929 32.5 65.7208 32.5 70.5212C32.5 75.4792 38.3067 80.452 47.1286 83.4673C47.8248 83.7052 48.5472 83.9302 49.2917 84.1438C49.05 85.1166 48.8398 86.0698 48.6634 86.9995C46.9902 95.8119 48.2969 102.809 52.4552 105.208C56.7504 107.685 63.9589 105.139 70.9782 99.0029C71.533 98.5179 72.0897 98.0035 72.6475 97.4644C73.3705 98.1606 74.0923 98.8195 74.8103 99.4375C81.6093 105.288 88.3244 107.651 92.4789 105.246C96.7698 102.762 98.1643 95.2448 96.3538 86.0994C96.2155 85.4009 96.0546 84.6874 95.8739 83.9611C96.3802 83.8115 96.8771 83.657 97.3617 83.4964C106.533 80.4577 112.5 75.5454 112.5 70.5212C112.5 65.7035 106.916 61.0443 98.2761 58.0699ZM96.2869 80.2524C95.8494 80.3972 95.4006 80.5372 94.9432 80.6729C93.9308 77.4676 92.5643 74.0593 90.8921 70.5379C92.4878 67.1004 93.8015 63.7357 94.7856 60.5512C95.6039 60.788 96.3982 61.0378 97.1636 61.3013C104.567 63.8499 109.082 67.6179 109.082 70.5212C109.082 73.6139 104.206 77.6285 96.2869 80.2524ZM93.0012 86.7631C93.8017 90.8071 93.9161 94.4634 93.3858 97.3216C92.9093 99.8899 91.9511 101.602 90.7664 102.288C88.2452 103.747 82.8537 101.85 77.0391 96.8468C76.3725 96.2732 75.7011 95.6608 75.0276 95.0126C77.2818 92.5472 79.5346 89.6812 81.7334 86.4981C85.6008 86.1549 89.2547 85.5939 92.5681 84.8279C92.7313 85.4862 92.8763 86.1319 93.0012 86.7631ZM59.7738 102.036C57.3106 102.906 55.3488 102.931 54.1629 102.247C51.6394 100.791 50.5904 95.1732 52.0213 87.6369C52.1852 86.7738 52.3803 85.8872 52.6052 84.981C55.8823 85.7057 59.5094 86.2271 63.386 86.5414C65.5996 89.6561 67.9176 92.519 70.2535 95.0258C69.7432 95.5185 69.2348 95.9876 68.7293 96.4296C65.6254 99.1427 62.515 101.068 59.7738 102.036ZM48.2339 80.2334C44.3331 78.9001 41.1116 77.1673 38.9034 75.2764C36.9192 73.5771 35.9174 71.8901 35.9174 70.5212C35.9174 67.6082 40.2605 63.8926 47.5039 61.3671C48.3827 61.0607 49.3028 60.7719 50.2576 60.5006C51.2586 63.757 52.5718 67.1616 54.1566 70.6044C52.5513 74.0983 51.2195 77.5572 50.2086 80.8517C49.5279 80.6561 48.8685 80.4502 48.2339 80.2334ZM52.1022 53.9024C50.5988 46.2189 51.5973 40.4227 54.1099 38.9682C56.7863 37.4188 62.7045 39.6279 68.9422 45.1666C69.3409 45.5206 69.7412 45.8911 70.1426 46.2744C67.8182 48.7702 65.5215 51.6117 63.3275 54.708C59.5651 55.0567 55.9635 55.6169 52.6522 56.3671C52.444 55.5296 52.2596 54.7069 52.1022 53.9024ZM86.6106 62.4234C85.819 61.0561 85.0063 59.7211 84.1779 58.4226C86.7304 58.7453 89.1759 59.1736 91.4725 59.6978C90.783 61.9075 89.9236 64.218 88.912 66.5865C88.1864 65.2088 87.4188 63.8197 86.6106 62.4234ZM72.5382 48.7168C74.1145 50.4246 75.6932 52.3314 77.2459 54.4001C75.6812 54.3262 74.0971 54.2878 72.5 54.2878C70.9179 54.2878 69.3456 54.3254 67.7906 54.398C69.3449 52.3484 70.9372 50.4443 72.5382 48.7168ZM58.3756 62.4471C57.5849 63.8182 56.8316 65.1998 56.1173 66.5839C55.1221 64.2237 54.2707 61.9027 53.5752 59.6616C55.8577 59.1508 58.2917 58.7332 60.828 58.4166C59.9878 59.7271 59.1685 61.0719 58.3756 62.4468V62.4471ZM60.901 82.8697C58.2806 82.5773 55.81 82.1812 53.528 81.6845C54.2346 79.4034 55.1048 77.0329 56.1211 74.6218C56.8373 76.0049 57.5935 77.387 58.3891 78.7612H58.3893C59.1997 80.1611 60.0392 81.5324 60.901 82.8697ZM72.6327 92.5666C71.0129 90.8189 69.3973 88.8857 67.8193 86.8063C69.3511 86.8664 70.9128 86.8971 72.5 86.8971C74.1306 86.8971 75.7426 86.8604 77.3292 86.7898C75.7713 88.9067 74.1984 90.8429 72.6327 92.5666ZM88.9447 74.4989C90.0139 76.936 90.9153 79.2942 91.631 81.5364C89.3115 82.0655 86.8071 82.4917 84.1685 82.8084C84.9989 81.4924 85.8187 80.1345 86.6243 78.7377C87.4392 77.3245 88.213 75.9092 88.9447 74.4989ZM83.6639 77.0303C82.4134 79.1986 81.1295 81.2685 79.8261 83.2224C77.4522 83.3921 74.9997 83.4796 72.5 83.4796C70.0104 83.4796 67.5888 83.4022 65.2569 83.2509C63.901 81.2714 62.5892 79.1953 61.3466 77.049H61.3469C60.1076 74.9084 58.967 72.7498 57.9334 70.6033C58.9667 68.4518 60.1043 66.2907 61.3365 64.154L61.3362 64.1545C62.5717 62.0121 63.8719 59.9461 65.2153 57.979C67.5945 57.7992 70.0342 57.7053 72.4999 57.7053H72.5C74.9767 57.7053 77.4196 57.7999 79.7981 57.9813C81.121 59.934 82.4124 61.9933 83.6527 64.1359C84.9071 66.3027 86.0594 68.4493 87.1014 70.5547C86.0625 72.6963 84.9128 74.8646 83.6639 77.0303ZM90.714 38.8665C93.3929 40.4114 94.4347 46.6419 92.7515 54.8121C92.6442 55.3334 92.5233 55.8644 92.392 56.4025C89.073 55.6367 85.4688 55.0668 81.6954 54.7128C79.4972 51.5825 77.2192 48.7366 74.9327 46.2728C75.5475 45.6815 76.1614 45.1176 76.7727 44.5854C82.6788 39.4455 88.1989 37.4162 90.714 38.8665ZM72.5 63.3775C76.4453 63.3775 79.6437 66.5758 79.6437 70.5212C79.6437 74.4666 76.4453 77.665 72.5 77.665C68.5547 77.665 65.3563 74.4666 65.3563 70.5212C65.3563 66.5758 68.5547 63.3775 72.5 63.3775Z" fill="#00D8FF"/>
</g>
<defs>
<clipPath id="clip0_578_4967">
<rect width="80" height="80" fill="white" transform="translate(32.5 31)"/>
</clipPath>
</defs>
</svg>
