<svg width="144" height="143" viewBox="0 0 144 143" fill="none" xmlns="http://www.w3.org/2000/svg">
<g style="mix-blend-mode:luminosity">
<g style="mix-blend-mode:luminosity">
<path d="M72.2197 48C61.5531 48 54.8864 53.3333 52.2197 64C56.2197 58.6667 60.8864 56.6667 66.2197 58C69.2627 58.7607 71.4377 60.9683 73.8451 63.412C77.7668 67.3927 82.3058 72 92.2197 72C102.886 72 109.553 66.6667 112.22 56C108.22 61.3333 103.553 63.3333 98.2197 62C95.1768 61.2393 93.0018 59.0317 90.5944 56.588C86.6726 52.6073 82.1337 48 72.2197 48ZM52.2197 72C41.5531 72 34.8864 77.3333 32.2197 88C36.2197 82.6667 40.8864 80.6667 46.2197 82C49.2627 82.7607 51.4377 84.9683 53.8451 87.412C57.7668 91.3927 62.3058 96 72.2197 96C82.8864 96 89.5531 90.6667 92.2197 80C88.2197 85.3333 83.5531 87.3333 78.2197 86C75.1768 85.2393 73.0018 83.0317 70.5944 80.588C66.6726 76.6073 62.1337 72 52.2197 72Z" fill="url(#paint0_linear_578_5002)"/>
</g>
</g>
<defs>
<linearGradient id="paint0_linear_578_5002" x1="29.9975" y1="63.36" x2="99.0906" y2="103.197" gradientUnits="userSpaceOnUse">
<stop stop-color="#2298BD"/>
<stop offset="1" stop-color="#0ED7B5"/>
</linearGradient>
</defs>
</svg>
