<svg width="144" height="143" viewBox="0 0 144 143" fill="none" xmlns="http://www.w3.org/2000/svg">
<path d="M32.0981 72V112H72.0981H112.098V72V32H72.0981H32.0981V72Z" fill="#007ACC"/>
<path d="M49.9331 72.1365L49.9077 75.4127H55.114H60.3204V90.2063V105H64.0029H67.6854V90.2063V75.4127H72.8918H78.0981V72.2C78.0981 70.4222 78.06 68.9365 78.0093 68.8984C77.9712 68.8476 71.6347 68.8222 63.9521 68.8349L49.9712 68.873L49.9331 72.1365Z" fill="white"/>
<path d="M96.7624 69.3695C98.7942 69.8775 100.343 70.7791 101.766 72.2521C102.502 73.0394 103.594 74.4743 103.683 74.8171C103.708 74.9187 100.229 77.2552 98.1211 78.5632C98.0449 78.614 97.7402 78.2838 97.3973 77.7759C96.3688 76.2775 95.2894 75.6298 93.6386 75.5156C91.2132 75.3505 89.6513 76.6203 89.664 78.741C89.664 79.3632 89.7529 79.7314 90.0069 80.2394C90.5402 81.3441 91.5307 82.0045 94.6418 83.3505C100.369 85.814 102.82 87.4394 104.343 89.7505C106.045 92.3283 106.426 96.4425 105.27 99.5029C104.001 102.83 100.851 105.09 96.4195 105.839C95.0481 106.081 91.7973 106.043 90.3243 105.776C87.1116 105.204 84.064 103.617 82.1846 101.535C81.4481 100.722 80.0132 98.6013 80.1021 98.4489C80.1402 98.3981 80.4703 98.1949 80.8386 97.9791C81.1942 97.7759 82.5402 97.0013 83.81 96.2648L86.1084 94.9314L86.591 95.6425C87.264 96.6711 88.737 98.0806 89.6259 98.5505C92.1783 99.8965 95.683 99.706 97.41 98.1568C98.1465 97.4838 98.4513 96.7854 98.4513 95.7568C98.4513 94.8298 98.337 94.4235 97.8545 93.7251C97.2322 92.8362 95.9624 92.087 92.3561 90.5251C88.2291 88.7473 86.4513 87.6425 84.8259 85.8902C83.8862 84.8743 82.9973 83.2489 82.6291 81.8902C82.3243 80.76 82.2481 77.9283 82.4894 76.7854C83.3402 72.7981 86.3497 70.0172 90.6926 69.1918C92.1021 68.9251 95.3783 69.0267 96.7624 69.3695Z" fill="white"/>
</svg>
